<?xml version="1.0" encoding="UTF-8"?>
<svg width="164px" height="164px" viewBox="0 0 164 164" version="1.1" xmlns="http://www.w3.org/2000/svg" xmlns:xlink="http://www.w3.org/1999/xlink">
    <!-- Generator: Sketch 43.1 (39012) - http://www.bohemiancoding.com/sketch -->
    <title>Group 13</title>
    <desc>Created with Sketch.</desc>
    <defs></defs>
    <g id="Page-1" stroke="none" stroke-width="1" fill="none" fill-rule="evenodd">
        <g id="Goat-Project-Home" transform="translate(-137.000000, -509.000000)">
            <g id="Group-13" transform="translate(137.000000, 509.000000)">
                <polygon id="Star-Button" fill="#F0543A" points="98.3095673 -5.68434189e-14 81.9989078 15.1158113 65.6882484 -5.68434189e-14 56.4046937 20.207568 35.5483691 12.4836506 34.7030195 34.7073882 12.4836506 35.5527378 20.2053837 56.4046937 1.13686838e-13 65.6904327 15.113627 82.0010922 1.13686838e-13 98.3095673 20.2053837 107.595306 12.4836506 128.449447 34.7030195 129.294796 35.5483691 151.516349 56.4046937 143.794616 65.6882484 164 81.9989078 148.886373 98.3095673 164 107.595306 143.794616 128.447262 151.516349 129.292612 129.294796 151.516349 128.449447 143.792432 107.595306 164 98.3095673 148.882004 82.0010922 164 65.6904327 143.792432 56.4046937 151.516349 35.5527378 129.292612 34.7073882 128.447262 12.4836506 107.595306 20.207568"></polygon>
                <path d="M61.2260001,66 L61.2260001,54.661 L67.1930001,54.661 C69.3520001,54.661 70.4570001,56.038 70.4570001,57.551 C70.4570001,58.979 69.5730001,59.931 68.5020001,60.152 C69.7090001,60.339 70.6780001,61.512 70.6780001,62.94 C70.6780001,64.64 69.5390001,66 67.3800001,66 L61.2260001,66 Z M63.6400001,59.217 L66.6660001,59.217 C67.4820001,59.217 67.9920001,58.69 67.9920001,57.959 C67.9920001,57.262 67.4820001,56.718 66.6660001,56.718 L63.6400001,56.718 L63.6400001,59.217 Z M63.6400001,63.943 L66.7510001,63.943 C67.6690001,63.943 68.2130001,63.416 68.2130001,62.6 C68.2130001,61.886 67.7030001,61.274 66.7510001,61.274 L63.6400001,61.274 L63.6400001,63.943 Z M75.557,61.478 C75.557,64.266 77.172,66.204 80.64,66.204 C84.074,66.204 85.689,64.283 85.689,61.461 L85.689,54.661 L83.241,54.661 L83.241,61.393 C83.241,62.974 82.374,64.062 80.64,64.062 C78.872,64.062 78.005,62.974 78.005,61.393 L78.005,54.661 L75.557,54.661 L75.557,61.478 Z M94.155,66 L96.569,66 L96.569,61.359 L100.904,54.661 L98.15,54.661 L95.362,59.217 L92.54,54.661 L89.786,54.661 L94.155,61.359 L94.155,66 Z M83.717,86 L83.003,84.045 L77.937,84.045 L77.223,86 L74.571,86 L78.957,74.661 L81.983,74.661 L86.352,86 L83.717,86 Z M80.47,76.752 L78.583,81.954 L82.34,81.954 L80.47,76.752 Z M53.9075001,100.339 C53.9075001,103.909 56.6275001,106.221 59.9425001,106.221 C61.9995001,106.221 63.6145001,105.371 64.7705001,104.079 L64.7705001,99.744 L59.3645001,99.744 L59.3645001,101.818 L62.3905001,101.818 L62.3905001,103.195 C61.8975001,103.637 60.9795001,104.062 59.9425001,104.062 C57.8855001,104.062 56.3895001,102.481 56.3895001,100.339 C56.3895001,98.197 57.8855001,96.616 59.9425001,96.616 C61.1325001,96.616 62.1015001,97.245 62.6285001,98.044 L64.6345001,96.956 C63.7675001,95.613 62.2885001,94.474 59.9425001,94.474 C56.6275001,94.474 53.9075001,96.752 53.9075001,100.339 Z M69.2075001,100.339 C69.2075001,96.922 71.7065001,94.474 75.1235001,94.474 C78.5575001,94.474 81.0565001,96.922 81.0565001,100.339 C81.0565001,103.756 78.5575001,106.204 75.1235001,106.204 C71.7065001,106.204 69.2075001,103.756 69.2075001,100.339 Z M78.5745001,100.339 C78.5745001,98.214 77.2145001,96.616 75.1235001,96.616 C73.0325001,96.616 71.6895001,98.214 71.6895001,100.339 C71.6895001,102.447 73.0325001,104.062 75.1235001,104.062 C77.2145001,104.062 78.5745001,102.447 78.5745001,100.339 Z M93.1775,106 L92.4635,104.045 L87.3975,104.045 L86.6835,106 L84.0315,106 L88.4175,94.661 L91.4435,94.661 L95.8125,106 L93.1775,106 Z M89.9305,96.752 L88.0435,101.954 L91.8005,101.954 L89.9305,96.752 Z M101.4565,106 L103.8875,106 L103.8875,96.786 L107.1855,96.786 L107.1855,94.661 L98.1414999,94.661 L98.1414999,96.786 L101.4565,96.786 L101.4565,106 Z" id="BUY-A-GOAT" fill="#FFFFFF"></path>
            </g>
        </g>
    </g>
</svg>