<?xml version="1.0" encoding="UTF-8"?>
<svg width="85px" height="92px" viewBox="0 0 85 92" version="1.1" xmlns="http://www.w3.org/2000/svg" xmlns:xlink="http://www.w3.org/1999/xlink">
    <!-- Generator: Sketch 43.1 (39012) - http://www.bohemiancoding.com/sketch -->
    <title>Gift</title>
    <desc>Created with Sketch.</desc>
    <defs></defs>
    <g id="Page-1" stroke="none" stroke-width="1" fill="none" fill-rule="evenodd">
        <g id="Goat-Project-Home" transform="translate(-176.000000, -982.000000)">
            <g id="Gift" transform="translate(176.000000, 984.000000)">
                <g id="Gift-Icon" transform="translate(12.000000, 0.000000)" stroke-width="3" stroke="#231F1F">
                    <polygon id="Stroke-1" points="61.031587 79.031587 32.0674783 79.031587 0 79.031587 0 18 61.031587 18"></polygon>
                    <path d="M30,18 L30,78.999913" id="Stroke-3"></path>
                    <path d="M26.244413,2.27243478 C29.2743261,5.30234783 31.0723261,18.0716522 31.0723261,18.0716522 C31.0723261,18.0716522 18.3023478,16.2743261 15.2724348,13.244413 C12.2425217,10.2145 12.2425217,5.30234783 15.2724348,2.27243478 C18.3023478,-0.757478261 23.2145,-0.757478261 26.244413,2.27243478 Z" id="Stroke-5"></path>
                    <path d="M35.827913,2.27243478 C32.798,5.30234783 31,18.0716522 31,18.0716522 C31,18.0716522 43.7699783,16.2743261 46.7998913,13.244413 C49.8298043,10.2145 49.8298043,5.30234783 46.7998913,2.27243478 C43.7699783,-0.757478261 38.8578261,-0.757478261 35.827913,2.27243478 Z" id="Stroke-7"></path>
                </g>
                <path d="M0,47.5 C0,24.0278208 19.0278208,5 42.5,5 C65.9721792,5 84.9978063,24.0278208 84.9978063,47.5 C84.9978063,70.9721792 65.9721792,90 42.5,90 C19.0278208,90 0,70.9721792 0,47.5" id="Fill-1" fill="#F8B1A4" style="mix-blend-mode: multiply;"></path>
            </g>
        </g>
    </g>
</svg>