<?xml version="1.0" encoding="UTF-8"?>
<svg width="85px" height="85px" viewBox="0 0 85 85" version="1.1" xmlns="http://www.w3.org/2000/svg" xmlns:xlink="http://www.w3.org/1999/xlink">
    <!-- Generator: Sketch 43.1 (39012) - http://www.bohemiancoding.com/sketch -->
    <title>Goat x10</title>
    <desc>Created with Sketch.</desc>
    <defs></defs>
    <g id="Page-1" stroke="none" stroke-width="1" fill="none" fill-rule="evenodd">
        <g id="Goat-Project-Home" transform="translate(-176.000000, -1302.000000)">
            <g id="Goat-x10" transform="translate(176.000000, 1302.000000)">
                <path d="M0,42.5 C0,19.0278208 19.0278208,0 42.5,0 C65.9721792,0 84.9978063,19.0278208 84.9978063,42.5 C84.9978063,65.9721792 65.9721792,85 42.5,85 C19.0278208,85 0,65.9721792 0,42.5" id="Fill-1-Copy-5" fill="#FAAC1D" style="mix-blend-mode: multiply;"></path>
                <g id="Goat" transform="translate(20.000000, 9.000000)" fill="#000000">
                    <g id="Group-3" transform="translate(0.000000, 0.182143)">
                        <path d="M36.2719682,21.7358199 C35.4471778,21.7358199 34.6501048,21.5635761 33.9025272,21.224236 C33.5473486,21.0634752 33.1355474,21.086441 32.8005629,21.2871941 C32.4659744,21.4879472 32.2513626,21.8399581 32.225625,22.2291894 L31.4336995,34.4509752 C31.4321157,34.4767127 31.4313238,34.5024503 31.4313238,34.5281879 C31.4313238,39.8447795 27.9872399,43.940618 23.2645924,44.4672484 L23.2645924,38.7847873 C23.2645924,38.681045 23.24717,38.5820543 23.2222244,38.4862314 L26.37092,35.8115031 C26.871021,35.3870311 26.9319992,34.6370776 26.5071312,34.1369767 C26.0826592,33.6368758 25.3327057,33.5762935 24.8326048,34.0007655 L22.0767042,36.3420932 L19.3208036,34.0007655 C18.8214946,33.5766894 18.0711452,33.6372717 17.6466731,34.1369767 C17.2218051,34.6370776 17.2827834,35.3870311 17.7828843,35.8115031 L20.93158,38.4862314 C20.9066343,38.5820543 20.888816,38.681045 20.888816,38.7847873 L20.888816,44.4672484 C16.1661685,43.940618 12.7220846,39.8447795 12.7220846,34.5281879 C12.7220846,34.5024503 12.7212927,34.4767127 12.7201048,34.4509752 L11.9281793,22.2291894 C11.9024418,21.8399581 11.68783,21.4879472 11.3528455,21.2871941 C11.1659511,21.1747407 10.954507,21.118118 10.742271,21.118118 C10.5755707,21.118118 10.4080784,21.1533587 10.2512772,21.224236 C9.50330357,21.5635761 8.70623059,21.7358199 7.88144022,21.7358199 C5.48507376,21.7358199 3.35598214,20.2458121 2.51574922,18.047823 C3.6050427,16.8377609 5.12910326,16.1543292 6.77868401,16.1543292 C8.15584239,16.1543292 9.48984084,16.6536382 10.5351825,17.5603929 C10.8353222,17.8201444 11.2451436,17.9124037 11.6272477,17.8086615 C12.0101436,17.7037314 12.3150349,17.4150745 12.4401592,17.038514 C12.6919915,16.283413 13.0277679,15.5750357 13.4332337,14.9197174 C13.4530318,14.8884363 13.4756017,14.8591351 13.4926281,14.8258742 C15.299802,11.9745466 18.4520613,10.1764798 21.9282182,10.1764798 L22.2251902,10.1764798 C25.6989713,10.1764798 28.8488548,11.9717748 30.6564247,14.8191429 C30.6782026,14.8623028 30.706712,14.9018991 30.7332415,14.9422873 C31.1323719,15.5912702 31.4641887,16.2917283 31.7128533,17.038514 C31.8383734,17.4146786 32.1432648,17.7037314 32.5261607,17.8086615 C32.9070769,17.9124037 33.3180862,17.8201444 33.6182259,17.5603929 C34.6635675,16.6536382 35.997566,16.1543292 37.3751203,16.1543292 C39.0243051,16.1543292 40.5483657,16.8377609 41.6376592,18.0482189 C40.7978222,20.2458121 38.6683346,21.7358199 36.2719682,21.7358199 M22.0763082,51.5240963 C20.4833502,50.1200124 19.27408,48.3623339 18.5348175,46.4015264 C19.6003533,46.7266118 20.7375582,46.9020233 21.9282182,46.9020233 L22.2251902,46.9020233 C23.417038,46.9020233 24.5550349,46.7262158 25.6213626,46.4007345 C24.8821002,48.3623339 23.6716421,50.1204084 22.0763082,51.5240963 M10.6187306,4.00144099 C13.0194526,5.48313354 14.7565411,7.5033354 15.9610598,9.34020652 C14.9327446,9.90801708 13.9907492,10.6215419 13.1612073,11.4574193 C12.5114325,8.39662733 11.5076669,5.85019099 10.6187306,4.00144099 M33.5330939,4.00144099 C32.6445536,5.84979503 31.641184,8.3958354 30.9914092,11.4558354 C30.1618672,10.620354 29.2198719,9.90722516 28.1919526,9.3394146 C29.3960753,7.50293944 31.1331638,5.48313354 33.5330939,4.00144099 M43.9219682,17.0955326 C42.393948,15.0187081 39.9465023,13.7785528 37.3751203,13.7785528 C35.9670769,13.7785528 34.5915023,14.1467981 33.3794604,14.8341894 C33.2468129,14.5570155 33.1034744,14.2869689 32.9522166,14.0228618 C33.9227213,7.05272981 37.1957492,2.28375466 37.3371079,2.08062578 C37.3394837,2.07745807 37.3406716,2.07349845 37.3430474,2.07033075 C37.3822477,2.01370807 37.4139247,1.9539177 37.442038,1.89254348 C37.4459977,1.8838323 37.4515411,1.87591304 37.4555008,1.86720186 C37.6352679,1.44827329 37.5600349,0.950152174 37.2349495,0.597349379 C37.230198,0.592597826 37.2270303,0.586658385 37.2222787,0.581906832 C37.2155474,0.574779503 37.2111918,0.566860248 37.2040644,0.560128882 C37.0955707,0.450843168 36.9696545,0.37006677 36.8358191,0.312652174 C36.8330474,0.311464286 36.8302756,0.309880435 36.8275039,0.308692547 C36.6901048,0.250486025 36.5443905,0.219600932 36.3974884,0.215641304 L36.3602679,0.215641304 C36.2957259,0.216037267 36.23158,0.22078882 36.16783,0.231083851 C36.1614946,0.232271739 36.1547632,0.232667702 36.1484278,0.23385559 C36.0874495,0.244942547 36.0268672,0.25998913 35.9678688,0.280579193 C31.0207104,1.86561801 27.8625116,5.40433696 25.9801048,8.39029193 C24.7874651,8.00977174 23.5259278,7.80070342 22.2251902,7.80070342 L21.9282182,7.80070342 C20.6274806,7.80070342 19.3651514,8.0101677 18.1721157,8.39108385 C16.2948564,5.41225621 13.1485365,1.88422826 8.22276009,0.29325 C8.15109084,0.265136646 8.07664984,0.24692236 8.00181289,0.233063665 C7.99943711,0.232667702 7.9974573,0.232271739 7.99547748,0.232271739 C7.77057065,0.192279503 7.5373486,0.218017081 7.32392469,0.309088509 C7.32194488,0.309880435 7.32036102,0.31067236 7.31838121,0.311464286 C7.18414984,0.369274845 7.05744177,0.450051242 6.94776009,0.560128882 C6.94102873,0.566860248 6.93667314,0.574779503 6.92994177,0.581906832 C6.92479425,0.587054348 6.92123059,0.593389752 6.91608307,0.59893323 C6.75848991,0.770781056 6.6587073,0.975889752 6.62069488,1.19168944 C6.61950699,1.19644099 6.61990295,1.20158851 6.61911102,1.20673602 C6.60802407,1.27563354 6.6012927,1.34492702 6.60208463,1.4142205 C6.60248059,1.43877019 6.60762811,1.46292391 6.60921196,1.4874736 C6.61317158,1.53815683 6.61594332,1.58884006 6.62623835,1.63873137 C6.63257376,1.67040839 6.6448486,1.70089752 6.65395575,1.73217857 C6.66623059,1.77494255 6.67692158,1.81810248 6.69434394,1.85967857 C6.70701475,1.88937578 6.72483307,1.91709317 6.73987966,1.94599845 C6.76126165,1.98717857 6.78105978,2.02875466 6.80758929,2.06755901 C6.81036102,2.0719146 6.81194488,2.07627019 6.81471661,2.08062578 C6.95647127,2.28375466 10.2298952,7.0539177 11.2003998,14.0248416 C11.0491421,14.2885528 10.9065955,14.5578075 10.773948,14.8341894 C9.56190606,14.1467981 8.18633152,13.7785528 6.77868401,13.7785528 C4.20690606,13.7785528 1.7594604,15.0187081 0.231044255,17.0955326 C0.0168284161,17.3865652 -0.0528610248,17.7591661 0.0405861801,18.1080093 C0.991292702,21.6427686 4.21561724,24.1115963 7.88144022,24.1115963 C8.48449146,24.1115963 9.07764363,24.0462624 9.65614519,23.9167826 L10.3463082,34.5669922 C10.3581871,39.1043292 12.4326359,42.9166584 15.6708191,45.0540652 C16.4314635,48.6125823 18.433847,51.7751366 21.3556561,54.0036149 C21.568288,54.1655637 21.8224961,54.246736 22.0759123,54.246736 C22.3297244,54.246736 22.5831405,54.1659596 22.7957725,54.0040109 C25.7207492,51.7767205 27.7251126,48.6133742 28.485757,45.0524814 C31.7223564,42.9146786 33.7956172,39.1031413 33.8071002,34.5669922 L34.4976592,23.9167826 C35.0757648,24.0462624 35.6689169,24.1115963 36.2719682,24.1115963 C39.9381871,24.1115963 43.1621157,21.6427686 44.1128222,18.1080093 C44.2062694,17.7591661 44.136184,17.3865652 43.9219682,17.0955326" id="Fill-1"></path>
                    </g>
                    <path d="M15.8898261,23.4813424 C15.0424658,23.4813424 14.3554705,24.1683377 14.3554705,25.015698 C14.3554705,25.8630582 15.0424658,26.5500536 15.8898261,26.5500536 C16.7371863,26.5500536 17.4241817,25.8630582 17.4241817,25.015698 C17.4241817,24.1683377 16.7371863,23.4813424 15.8898261,23.4813424" id="Fill-4"></path>
                    <path d="M28.2636615,23.4813424 C27.4163012,23.4813424 26.7293059,24.1683377 26.7293059,25.015698 C26.7293059,25.8630582 27.4163012,26.5500536 28.2636615,26.5500536 C29.1110217,26.5500536 29.7980171,25.8630582 29.7980171,25.015698 C29.7980171,24.1683377 29.1110217,23.4813424 28.2636615,23.4813424" id="Fill-6"></path>
                </g>
                <text id="X-10" font-family="AvenirLTStd-Black, Avenir LT Std" font-size="12" font-weight="700" letter-spacing="1.29999995" fill="#000000">
                    <tspan x="27" y="77">X 10</tspan>
                </text>
            </g>
        </g>
    </g>
</svg>